EulerText-Bold.sfdir
StartChar: numbersign
Encoding: 35 35 140
Width: 799
UnlinkRmOvrlpSave: 1
Flags: W
HStem: -3 21G<165 217.601 415 467.601> 211 56<37 702> 461 56<120 764>
DStem2: 160 16 212 -3 0.26968 0.96295<0 725.959> 410 16 462 -3 0.26968 0.96295<0 725.959>
LayerCount: 2
Fore
SplineSet
107 508 m 1
 115 517 l 1
 768 517 l 1
 775 470 l 1
 764 461 l 1
 120 461 l 1
 113 472 l 1
 107 508 l 1
24 258 m 1
 32 267 l 1
 706 267 l 1
 713 220 l 1
 702 211 l 1
 37 211 l 1
 30 222 l 1
 24 258 l 1
653 714 m 1
 660 704 l 1
 462 -3 l 1
 415 2 l 1
 410 16 l 1
 606 715 l 1
 617 718 l 1
 653 714 l 1
403 714 m 1
 410 704 l 1
 212 -3 l 1
 165 2 l 1
 160 16 l 1
 356 715 l 1
 367 718 l 1
 403 714 l 1
EndSplineSet
EndChar
StartChar: plus
Encoding: 43 43 122
Width: 893
Flags: W
HStem: 238 50<73 422 73 422 56 422 472 821>
VStem: 422 50<-64 238 -64 238 -64 238 288 584 584 584>
LayerCount: 2
Fore
SplineSet
472 288 m 1
 837 288 l 1
 821 238 l 1
 472 238 l 1
 472 -64 l 1
 422 -83 l 1
 422 238 l 1
 56 238 l 1
 73 288 l 1
 422 288 l 1
 422 584 l 1
 472 598 l 1
 472 288 l 1
EndSplineSet
EndChar
StartChar: hyphen
Encoding: 45 45 137
Width: 395
Flags: W
HStem: 231 50<73 320>
VStem: 54 282
LayerCount: 2
Fore
SplineSet
320 231 m 1
 54 231 l 1
 73 281 l 1
 336 281 l 1
 320 231 l 1
EndSplineSet
EndChar
StartChar: period
Encoding: 46 46 48
Width: 306
Flags: MW
HStem: -15 117
VStem: 96 130
LayerCount: 2
Fore
SplineSet
90 56 m 0
 90 95 122 127 161 127 c 0
 199 127 231 95 231 56 c 0
 231 18 199 -14 161 -14 c 0
 122 -14 90 18 90 56 c 0
EndSplineSet
EndChar
StartChar: slash
Encoding: 47 47 51
Width: 553
Flags: MW
HStem: -182 21 702 20
VStem: 34 432
LayerCount: 2
Fore
SplineSet
490 711 m 1
 495 700 l 1
 106 -196 l 1
 60 -184 l 1
 57 -170 l 1
 443 718 l 1
 454 720 l 1
 490 711 l 1
EndSplineSet
EndChar
StartChar: four
Encoding: 52 52 42
Width: 550
Flags: MW
HStem: 184 71<88 293 88 294 413 490>
VStem: 301 105<152.5 177 152.5 178 152.5 263 263 571 571 571 679 679>
LayerCount: 2
Fore
SplineSet
413 255 m 1
 515 255 l 1
 519 246 l 1
 490 184 l 1
 413 184 l 1
 406 177 l 1
 406 128 408 80 413 32 c 1
 305 -12 l 1
 291 -1 l 1
 297 58 301 118 301 178 c 1
 294 184 l 1
 2 184 l 1
 2 236 l 1
 301 679 l 1
 406 708 l 1
 406 698 l 1
 406 263 l 1
 413 255 l 1
301 260 m 1
 301 571 l 1
 295 581 l 1
 290 581 248 529 197 455 c 0
 96 307 82 265 82 261 c 1
 88 255 l 1
 293 255 l 1
 301 260 l 1
EndSplineSet
EndChar
StartChar: six
Encoding: 54 54 44
Width: 550
Flags: MW
HStem: -12 51<244 310> 318 68 646 58<340 409.5>
VStem: 44 116 419 90<156.5 204.5>
LayerCount: 2
Fore
SplineSet
496 625 m 1
 477 623 l 1
 453 638 424 646 395 646 c 0
 230 646 164 473 159 336 c 1
 167 331 l 1
 217 362 273 386 334 386 c 0
 440 386 509 305 509 216 c 0
 509 97 377 -12 243 -12 c 0
 100 -12 44 141 44 253 c 0
 44 465 221 704 459 704 c 0
 472 704 504 697 520 690 c 1
 496 625 l 1
161 286 m 1
 165 196 184 39 304 39 c 0
 375 39 419 107 419 165 c 0
 419 244 368 320 269 320 c 0
 230 320 194 303 161 286 c 1
EndSplineSet
EndChar
StartChar: nine
Encoding: 57 57 47
Width: 550
Flags: MW
HStem: -10 21<128 128> 303 71 643 64
VStem: 48 107<484.5 522.5> 400 114<457.5 586.5>
LayerCount: 2
Fore
SplineSet
376 342 m 1
 369 349 l 1
 298 313 235 303 215 303 c 0
 125 303 48 382 48 465 c 0
 48 580 146 651 252 707 c 1
 295 707 335 707 377 698 c 0
 457 681 514 622 514 551 c 0
 514 514 500 480 485 446 c 0
 422 303 291 170 235 16 c 1
 128 -10 l 1
 113 2 l 1
 132 36 154 66 179 97 c 2
 376 342 l 1
380 393 m 1
 389 416 400 445 400 470 c 0
 400 522 381 572 341 608 c 0
 313 634 247 646 215 646 c 1
 176 616 155 568 155 523 c 0
 155 446 204 370 302 370 c 0
 331 370 356 380 380 393 c 1
EndSplineSet
EndChar
StartChar: colon
Encoding: 58 58 126
Width: 255
Flags: W
HStem: -16 145<107.5 147> 334 144<107 147>
VStem: 55 144<386 426>
LayerCount: 2
Fore
SplineSet
127 478 m 0
 167 478 199 446 199 406 c 0
 199 366 167 334 127 334 c 0
 87 334 55 366 55 406 c 0
 55 446 87 478 127 478 c 0
127 129 m 0
 167 129 200 97 200 57 c 0
 200 17 167 -16 127 -16 c 0
 88 -16 55 17 55 57 c 0
 55 97 88 129 127 129 c 0
EndSplineSet
EndChar
StartChar: semicolon
Encoding: 59 59 127
Width: 255
Flags: W
HStem: -190 289 343 116
VStem: 56 156
LayerCount: 2
Fore
SplineSet
126 479 m 0
 166 479 198 447 198 407 c 0
 198 367 166 334 126 334 c 0
 86 334 54 367 54 407 c 0
 54 447 86 479 126 479 c 0
103 -217 m 1
 76 -197 l 1
 79 -193 l 1
 115 -147 144 -98 144 -61 c 0
 144 -48 140 -32 132 -22 c 2
 62 61 l 2
 55 70 54 87 54 90 c 0
 54 125 102 143 118 143 c 0
 129 143 148 134 156 124 c 0
 174 101 211 25 211 -27 c 0
 211 -79 178 -129 106 -214 c 1
 103 -217 l 1
EndSplineSet
EndChar
StartChar: less
Encoding: 60 60 50
Width: 363
Flags: MW
HStem: -10 21<296 296> 455 20<304 304>
VStem: 19 319
LayerCount: 2
Fore
SplineSet
329 443 m 1
 96 252 l 1
 339 29 l 1
 296 -10 l 1
 19 245 l 1
 304 475 l 1
 329 443 l 1
EndSplineSet
EndChar
StartChar: greater
Encoding: 62 62 52
Width: 361
Flags: MW
HStem: -7 21 452 20<74 74>
VStem: 34 295<241 437>
LayerCount: 2
Fore
SplineSet
329 241 m 1
 74 -7 l 1
 47 14 l 1
 265 228 l 1
 34 437 l 1
 74 472 l 1
 329 241 l 1
EndSplineSet
EndChar
StartChar: question
Encoding: 63 63 125
Width: 428
Flags: W
HStem: -15 129 170 21 654 45
VStem: 95 147 312 111<549.5 573>
LayerCount: 2
Fore
SplineSet
169 121 m 0
 209 121 242 89 242 49 c 0
 242 9 209 -24 169 -24 c 0
 130 -24 97 9 97 49 c 0
 97 89 130 121 169 121 c 0
153 534 m 1
 75 489 l 1
 46 503 39 526 39 552 c 0
 39 644 165 699 263 699 c 0
 346 699 423 654 423 577 c 0
 423 522 395 475 347 438 c 2
 217 338 l 2
 197 322 180 299 180 275 c 0
 180 255 190 239 208 224 c 1
 208 215 l 1
 138 168 l 1
 104 183 83 207 83 240 c 0
 83 267 99 293 123 311 c 2
 243 398 l 2
 297 437 312 490 312 549 c 0
 312 597 267 659 209 659 c 0
 165 659 121 638 121 591 c 0
 121 576 129 558 141 546 c 2
 153 534 l 1
EndSplineSet
EndChar
StartChar: A
Encoding: 65 65 54
Width: 712
Flags: W
HStem: -14 76<550 704.5> -1 21G<-57 71> 268 52<219.005 409.996> 637 50<256.167 313.999> 649 38<217 271.833>
DStem2: 441 687 344 543 0.290995 -0.956725<99.2984 337.175 398.249 625.695>
LayerCount: 2
Fore
SplineSet
71 10 m 1xa8
 -55 -1 l 1
 -57 9 l 1
 78 210 202 415 313 628 c 0
 314 629 314 631 314 633 c 0
 314 634 313 637 311 637 c 2x70
 217 649 l 1
 217 687 l 1
 441 687 l 1
 552 314 l 2
 580 220 628 62 696 62 c 0
 713 62 735 66 754 70 c 1
 761 42 l 1
 703 16 638 -14 580 -14 c 0
 520 -14 496 40 483 86 c 2
 432 268 l 1
 181 268 l 1
 147 204 105 97 71 10 c 1xa8
401 320 m 2
 404 320 410 322 410 325 c 0
 410 328 410 336 409 338 c 2
 344 543 l 2
 342 549 337 551 335 551 c 0
 333 551 329 548 326 543 c 2
 221 335 l 2
 219 332 219 330 219 326 c 0
 219 323 226 320 230 320 c 2
 401 320 l 2
EndSplineSet
EndChar
StartChar: F
Encoding: 70 70 59
Width: 470
Flags: W
HStem: -12 21G<86 171.143> 343 46<220.214 448.091> 644 54<8 249> 670 28<8 63.1494> 686 20G<444.5 482>
VStem: 86 140<23 296.183> 99 121<217.322 342.949 389.009 643.535>
LayerCount: 2
Fore
SplineSet
226 23 m 1xe4
 98 -12 l 1
 86 -4 l 1xe4
 93 165 99 333 99 501 c 0
 99 551 99 606 94 623 c 0
 83 661 37 666 0 670 c 1xd2
 0 690 l 1
 8 698 l 1xe2
 169 698 407 698 482 706 c 1xca
 482 638 l 1
 475 630 l 1
 370 636 265 644 249 644 c 0
 232 644 220 641 220 609 c 2
 220 415 l 2
 220 402 226 389 237 389 c 0
 311 389 388 401 462 406 c 1
 475 394 l 1
 475 340 l 1
 416 343 321 343 245 343 c 0
 228 343 220 339 220 316 c 0xe2
 220 315 225 121 226 23 c 1xe4
EndSplineSet
EndChar
StartChar: H
Encoding: 72 72 61
Width: 788
Flags: W
HStem: -7 39<720.283 778> 339 49<220.49 572.679> 665 33<8 59.9297> 691 20G<616.333 713>
VStem: 99 121<30 338.491 388.567 640.479> 573 140<399.125 681> 573 124<67.8066 338.183 388.63 641.703>
LayerCount: 2
Fore
SplineSet
573 681 m 1xec
 703 711 l 1
 713 701 l 1xdc
 701 586 697 471 697 356 c 0
 697 93 671 38 784 32 c 1
 784 8 l 1
 778 -7 l 1
 582 -7 l 1
 559 14 l 1
 569 113 573 212 573 312 c 0xda
 573 337 555 339 537 339 c 2
 249 339 l 2
 234 339 220 334 220 311 c 0
 220 217 222 123 226 30 c 1
 101 -6 l 1
 99 -3 94 2 94 3 c 0
 99 122 99 240 99 359 c 2
 99 612 l 2
 99 645 33 658 0 665 c 1
 0 688 l 1
 8 698 l 1
 222 698 l 1
 230 690 l 1
 225 595 219 496 219 413 c 0
 219 394 234 388 250 388 c 2
 539 388 l 2
 573 388 573 399 573 413 c 2
 573 681 l 1xec
EndSplineSet
EndChar
StartChar: J
Encoding: 74 74 63
Width: 345
Flags: W
HStem: -192 21G<-23.1429 15> 658 47<244.438 331> 670 35<9 89.6427 259.411 331>
VStem: 107 125<-6.31445 648.35>
LayerCount: 2
Fore
SplineSet
232 513 m 2xd0
 232 167 l 2
 232 9 212 -37 144 -92 c 0
 96 -131 41 -164 -11 -192 c 1
 -28 -164 l 1
 100 -83 107 -16 107 128 c 2
 107 559 l 2
 107 583 107 609 104 631 c 0
 99 667 38 670 0 670 c 1
 0 697 l 1
 9 705 l 1xb0
 331 705 l 1
 339 697 l 1
 339 672 l 1
 317 667 272 658 271 658 c 0
 225 645 232 581 232 513 c 2xd0
EndSplineSet
EndChar
StartChar: L
Encoding: 76 76 65
Width: 533
Flags: W
HStem: 0 53<231.826 468.755> 671 31<20 74.9492 264.673 315>
VStem: 100 125<54.3342 646.454>
LayerCount: 2
Fore
SplineSet
545 75 m 1
 558 66 l 1
 537 -5 l 1
 447 0 226 0 70 0 c 1
 70 17 l 1
 79 27 94 40 97 50 c 0
 100 62 100 96 100 119 c 2
 100 565 l 2
 100 588 99 606 95 629 c 1
 87 663 44 669 12 671 c 1
 12 694 l 1
 20 702 l 1
 315 702 l 1
 323 694 l 1
 323 667 l 1
 227 657 225 640 225 544 c 2
 225 253 l 2
 225 170 216 53 252 53 c 0
 355 53 510 71 545 75 c 1
EndSplineSet
EndChar
StartChar: N
Encoding: 78 78 67
Width: 842
Flags: W
HStem: -3 21G<86 143.324> 669 30<10 48.9038> 693 20G<662 742>
VStem: 86 95<34 266.46> 641 101<439.367 686>
LayerCount: 2
Fore
SplineSet
181 526 m 1xd8
 181 34 l 1
 99 -3 l 1
 86 5 l 1
 96 191 105 377 105 562 c 0
 105 585 104 599 100 614 c 1
 89 646 32 661 2 669 c 1
 2 691 l 1
 10 699 l 1
 209 699 l 1xd8
 346 529 494 366 646 206 c 1
 641 208 l 1
 641 686 l 1
 722 713 l 1xb8
 742 699 l 1
 726 520 714 342 714 163 c 0
 714 110 715 57 719 5 c 1
 644 5 l 1
 169 533 l 2
 166 537 162 539 160 539 c 0
 156 539 153 535 181 526 c 1xd8
EndSplineSet
EndChar
StartChar: O
Encoding: 79 79 68
Width: 856
Flags: W
HStem: -15 46<341.286 524.681> 680 40<341.151 511.92>
VStem: 52 138<222.352 469.682> 659 143<242.619 486.677>
LayerCount: 2
Fore
SplineSet
52 330 m 0
 52 438 88 553 173 630 c 0
 250 700 350 720 469 720 c 0
 554 720 641 699 702 644 c 0
 775 577 802 483 802 391 c 0
 802 99 597 -15 369 -15 c 0
 289 -15 209 7 152 59 c 0
 78 127 52 233 52 330 c 0
190 366 m 0
 190 229 251 31 434 31 c 0
 610 31 659 187 659 325 c 0
 659 464 613 680 427 680 c 0
 265 680 190 506 190 366 c 0
EndSplineSet
EndChar
StartChar: P
Encoding: 80 80 69
Width: 566
Flags: W
HStem: -6 21G<81 163.556> 307 34<216.509 323.728> 664 35<7 70.5598 213.828 357.794>
VStem: 81 139<30 302.523> 89 126<167.58 304.266 341.367 648.815> 425 142<436.068 600.603>
LayerCount: 2
Fore
SplineSet
220 30 m 1xf4
 93 -6 l 1
 81 4 l 1xf4
 88 156 89 307 89 459 c 0
 89 514 89 592 85 623 c 1
 77 659 32 665 -1 669 c 1
 -1 691 l 1
 7 699 l 1
 352 699 l 2
 512 699 567 633 567 540 c 0
 567 479 549 419 501 375 c 0
 453 330 372 313 300 307 c 0
 272 305 215 315 215 282 c 0xec
 215 281 218 114 220 30 c 1xf4
215 361 m 0xec
 215 349 228 341 242 341 c 0
 358 341 425 424 425 522 c 0
 425 599 376 664 285 664 c 0
 260 664 213 671 213 641 c 0
 213 640 214 454 215 361 c 0xec
EndSplineSet
EndChar
StartChar: R
Encoding: 82 82 71
Width: 614
Flags: W
HStem: -8 21G<89 153.918 486 552.882> 325 41<224 236.951> 662 39<228.87 367.772> 670 31<13 78.1678>
VStem: 89 146<41 221.727> 102 122<182.641 325 366 652.948> 430 142<455.851 608.436>
LayerCount: 2
Fore
SplineSet
224 325 m 1xe6
 235 41 l 1
 98 -8 l 1
 89 1 l 1xea
 98 156 102 311 102 466 c 0
 102 519 102 602 99 624 c 0
 94 664 41 668 8 670 c 1
 8 696 l 1
 13 701 l 1xd6
 334 701 l 2
 487 701 572 655 572 552 c 0
 572 504 559 451 521 417 c 0
 480 380 428 365 374 351 c 1
 370 340 l 1
 456 239 568 106 621 57 c 1
 624 41 l 1
 507 -10 l 1
 486 -8 l 1
 237 323 l 2
 236 324 232 325 224 325 c 1xe6
224 366 m 1xe6
 270 366 352 381 382 412 c 0
 415 446 430 490 430 536 c 0
 430 623 365 662 280 662 c 0
 261 662 231 665 228 639 c 0
 227 635 224 458 224 366 c 1xe6
EndSplineSet
EndChar
StartChar: T
Encoding: 84 84 73
Width: 580
Flags: W
HStem: -11 21G<203 282.244> 637 75<-15 125.7> 645 69<342.312 571> 647 56<85.5 211 339 492.312>
VStem: 211 128<204.691 647.098>
LayerCount: 2
Fore
SplineSet
211 496 m 2xa8
 211 629 l 2
 211 643 200 648 186 647 c 2x98
 -15 637 l 1
 -24 646 l 1
 -24 704 l 1
 -16 712 l 1xc8
 80 710 176 703 272 703 c 0x98
 372 703 472 710 572 714 c 1
 582 704 l 1
 582 654 l 1
 571 645 l 1
 560 645 428 649 360 649 c 0
 345 649 339 647 339 634 c 2
 339 496 l 2
 339 341 346 185 356 30 c 1
 212 -11 l 1
 203 1 l 1
 208 166 211 331 211 496 c 2xa8
EndSplineSet
EndChar
StartChar: U
Encoding: 85 85 74
Width: 793
Flags: W
HStem: -10 73<580 752.5> -8 61<314.148 450.115> 670 34<-3 64.0612>
VStem: 89 127<163.554 553.779> 541 139<186.33 671> 548 126<78.9189 582.578>
LayerCount: 2
Fore
SplineSet
541 671 m 1x78
 681 717 l 1
 696 709 l 1
 688 672 682 630 680 589 c 0x78
 674 452 674 315 674 180 c 0
 674 111 667 63 743 63 c 0
 762 63 783 65 800 67 c 1
 801 49 l 1
 793 39 l 1
 636 -5 l 2
 623 -9 609 -10 596 -10 c 0xb4
 564 -10 553 15 547 39 c 1
 536 44 l 1
 466 16 392 -8 317 -8 c 0
 259 -8 198 0 157 38 c 0
 100 90 89 185 89 260 c 0
 89 334 96 436 96 524 c 0
 96 561 96 584 92 622 c 1
 85 658 30 664 -8 670 c 1
 -8 696 l 1
 -3 704 l 1
 226 704 l 1
 236 693 l 1
 220 560 216 431 216 297 c 0
 216 125 292 53 414 53 c 0
 461 53 508 70 548 88 c 1x74
 548 283 548 560 541 671 c 1x78
EndSplineSet
EndChar
StartChar: V
Encoding: 86 86 75
Width: 745
Flags: W
HStem: -5 21G<280 355.667> 669 34<-11 44.9923> 692 20G<158.5 217.5 642 761>
LayerCount: 2
Fore
SplineSet
642 697 m 1xc0
 758 712 l 1xa0
 761 698 l 1
 679 590 618 510 542 360 c 0
 486 250 430 140 388 25 c 1
 291 -5 l 1
 280 1 l 1
 109 520 l 2
 96 560 77 616 62 638 c 0
 45 663 -9 669 -19 669 c 1
 -19 696 l 1
 -11 703 l 1
 56 703 125 705 192 710 c 1
 243 518 294 345 371 178 c 0
 371 177 375 171 378 171 c 0
 383 171 388 178 390 182 c 2
 513 437 l 2
 552 519 597 611 642 697 c 1xc0
EndSplineSet
EndChar
StartChar: Y
Encoding: 89 89 78
Width: 594
Flags: W
HStem: -4 21G<226 315.25> 669 35<-14 4.83333>
VStem: 226 132<28 296.816> 232 117<42.1646 323>
DStem2: 169 704 91 576 0.453673 -0.891168<0 347.888>
LayerCount: 2
Fore
SplineSet
632 695 m 1xd0
 349 323 l 1xd0
 349 224 353 129 358 28 c 1
 244 -4 l 1
 226 5 l 1xe0
 228 107 232 296 232 297 c 0
 231 298 137 488 91 576 c 0
 75 607 56 648 24 657 c 2
 -22 669 l 1
 -22 695 l 1
 -14 704 l 1
 169 704 l 1
 176 687 269 503 319 402 c 0
 321 398 327 396 331 396 c 0
 336 396 339 397 343 401 c 1
 529 690 l 1
 631 707 l 1
 632 695 l 1xd0
EndSplineSet
EndChar
StartChar: Z
Encoding: 90 90 79
Width: 670
Flags: W
HStem: -11 91<381.5 626> 630 79<72 313.545>
LayerCount: 2
Fore
SplineSet
427 629 m 1
 417 643 l 1
 293 640 136 635 71 630 c 1
 63 638 l 1
 63 702 l 1
 72 709 l 1
 249 699 429 697 604 697 c 1
 604 670 l 1
 452 478 328 283 188 84 c 0
 187 83 186 81 186 80 c 0
 186 71 196 64 206 64 c 0
 350 65 494 72 638 80 c 1
 653 67 l 1
 626 -11 l 1
 499 0 195 0 -21 0 c 1
 -21 24 l 1
 138 223 278 424 427 629 c 1
EndSplineSet
EndChar
StartChar: backslash
Encoding: 92 92 134
Width: 567
Flags: W
HStem: -194 21<486 486> 706 20
VStem: 35 487
LayerCount: 2
Fore
SplineSet
486 -194 m 1
 43 709 l 1
 89 728 l 1
 528 -169 l 1
 486 -194 l 1
EndSplineSet
EndChar
StartChar: h
Encoding: 104 104 88
Width: 585
Flags: W
HStem: -8 96<438.5 549> 428 69<292.963 438> 641 35<-2 63.1> 676 20G<-2 186>
VStem: 76 118<22.8667 308.991> 81 105<112.372 394.424 433 629.501> 383 106<97.2659 327.182> 388 109<174.403 402.319>
LayerCount: 2
Fore
SplineSet
186 380 m 1xd5
 186 262 186 90 194 25 c 1
 89 -7 l 1
 76 4 l 1xd8
 81 110 81 218 81 325 c 0xd4
 81 418 80 588 76 604 c 0
 67 635 53 637 -14 641 c 1
 -14 668 l 1
 -2 676 l 1xe8
 184 696 l 1
 186 686 l 1
 186 433 l 1
 195 426 l 1
 254 460 325 497 390 497 c 0
 486 497 497 413 497 348 c 0xd5
 497 316 489 252 489 188 c 0
 489 125 499 88 535 88 c 0
 563 88 584 106 603 123 c 1
 618 112 l 1
 620 100 l 1
 582 56 528 -8 474 -8 c 0
 403 -8 383 42 383 155 c 0xd2
 383 215 388 265 388 310 c 0
 388 400 361 428 303 428 c 0
 267 428 218 404 186 380 c 1xd5
EndSplineSet
EndChar
StartChar: l
Encoding: 108 108 92
Width: 298
Flags: W
HStem: -7 85<126.5 237.085> 649 31<4 70.4688> 677 20G<4 201>
VStem: 84 108<83.1031 584.111> 87 114<287.75 637.224>
LayerCount: 2
Fore
SplineSet
201 685 m 1xa8
 193 231 l 2
 193 218 192 203 192 188 c 0
 192 117 196 78 230 78 c 0
 258 78 284 101 304 123 c 1
 316 123 l 1
 332 107 l 1
 294 56 234 -7 169 -7 c 0
 84 -7 84 62 84 124 c 0xb0
 84 200 88 276 88 358 c 0
 88 414 88 472 87 527 c 0
 86 556 86 597 82 614 c 0
 74 649 34 647 -8 649 c 1
 -8 672 l 1
 4 680 l 1xc8
 188 697 l 1
 201 685 l 1xa8
EndSplineSet
EndChar
StartChar: m
Encoding: 109 109 93
Width: 922
Flags: W
HStem: -7 98<771.5 877.5> 419 73<57.3927 137.094> 433 62<309.029 419.888 628.481 746.505>
VStem: 96 118<26 287.903> 103 105<112.745 395.85> 408 105<26 382> 716 108<95.9968 410.972>
LayerCount: 2
Fore
SplineSet
208 383 m 1xae
 208 264 209 64 214 26 c 1
 113 -8 l 1
 96 0 l 1xb6
 100 92 103 247 103 290 c 0xae
 103 357 104 419 64 419 c 0
 41 419 14 404 -8 389 c 1
 -27 413 l 1
 19 449 78 492 133 492 c 0
 181 492 201 463 204 428 c 1
 214 425 l 1xd6
 268 458 342 495 407 495 c 0
 454 495 497 471 511 423 c 1
 526 418 l 1
 587 453 649 494 716 494 c 0
 798 494 828 456 828 315 c 0
 828 272 824 196 824 154 c 0
 824 124 830 91 865 91 c 0
 890 91 911 100 931 114 c 1
 941 114 l 1
 952 93 l 1
 909 52 850 -7 790 -7 c 0
 753 -7 716 13 716 114 c 0
 716 165 720 232 720 283 c 0
 720 339 724 431 648 431 c 0
 605 431 552 396 513 369 c 1
 513 250 514 93 519 26 c 1
 420 -9 l 1
 404 -1 l 1
 408 98 408 193 408 289 c 0
 408 345 412 433 339 433 c 0
 293 433 244 406 208 383 c 1xae
EndSplineSet
EndChar
StartChar: n
Encoding: 110 110 94
Width: 591
Flags: W
HStem: -10 98<454 545.5> 423 74<30 140 296.357 446.5>
VStem: 78 105<110.188 387.857> 387 102<98.3745 400.494>
LayerCount: 2
Fore
SplineSet
183 378 m 1
 183 261 186 59 193 28 c 1
 83 -4 l 1
 71 3 l 1
 74 101 78 295 78 296 c 0
 78 360 80 423 40 423 c 0
 20 423 -17 398 -30 390 c 1
 -48 414 l 1
 -2 451 59 497 114 497 c 0
 166 497 177 462 180 428 c 1
 192 424 l 1
 250 460 324 494 391 494 c 0
 502 494 492 404 492 273 c 0
 492 242 489 202 489 170 c 0
 489 113 496 106 505 98 c 0
 512 91 522 88 533 88 c 0
 558 88 580 100 600 114 c 1
 612 114 l 1
 623 97 l 1
 579 53 520 -10 464 -10 c 0
 444 -10 424 -3 410 10 c 0
 380 38 387 94 387 240 c 0
 387 298 387 383 360 408 c 0
 345 422 324 424 304 424 c 0
 274 424 220 398 183 378 c 1
EndSplineSet
EndChar
StartChar: r
Encoding: 114 114 98
Width: 418
Flags: W
HStem: -6 21G<95 169.359> 401 85<298.126 396.5> 415 74<56.5 167.5>
VStem: 102 105<36.5913 355.352>
LayerCount: 2
Fore
SplineSet
221 33 m 1xd0
 115 -6 l 1
 95 1 l 1
 98 101 102 293 102 294 c 0
 102 354 105 415 66 415 c 0
 47 415 17 400 -2 385 c 1
 -18 408 l 1
 27 443 85 489 140 489 c 0xb0
 195 489 206 451 206 402 c 1
 217 397 l 1
 257 438 310 486 368 486 c 0
 425 486 447 441 447 396 c 1
 372 338 l 1
 359 346 l 1
 353 374 335 401 302 401 c 0
 224 401 207 313 207 257 c 0
 207 225 214 109 221 33 c 1xd0
EndSplineSet
EndChar
StartChar: s
Encoding: 115 115 99
Width: 433
Flags: W
HStem: -15 37<137.881 251.113> 457 37<151.686 253.315>
VStem: 37 97<275 412.632> 279 112<68.9106 171.888>
LayerCount: 2
Fore
SplineSet
385 426 m 1
 312 352 l 1
 297 356 l 1
 290 403 262 457 199 457 c 0
 154 457 134 429 134 385 c 0
 134 327 208 294 259 271 c 0
 351 229 391 204 391 138 c 0
 391 33 273 -15 174 -15 c 0
 108 -15 48 0 1 52 c 1
 64 146 l 1
 79 145 l 1
 94 88 120 22 196 22 c 0
 240 22 279 50 279 95 c 0
 279 113 270 128 256 141 c 0
 205 188 37 219 37 331 c 0
 37 445 133 494 236 494 c 0
 295 494 356 484 385 426 c 1
EndSplineSet
EndChar
StartChar: y
Encoding: 121 121 105
Width: 580
Flags: W
HStem: -232 50<181.943 311.3> -11 72<129.5 281.919> 417 72<28.5 133.5>
VStem: 75 108<90.9756 412.017> 385 113<-56.9878 54 289.719 458.121> 393 105<105.722 453.512>
LayerCount: 2
Fore
SplineSet
502 487 m 1xf4
 498 415 498 398 498 137 c 0xf4
 498 61 495 15 483 -35 c 0
 455 -155 319 -232 196 -232 c 0
 139 -232 72 -203 36 -161 c 1
 96 -82 l 1
 117 -82 l 1
 148 -136 190 -182 241 -182 c 0
 355 -182 382 -76 385 54 c 1xf8
 375 58 l 1
 321 23 244 -11 186 -11 c 0
 73 -11 75 82 75 176 c 0
 75 227 81 279 81 330 c 0
 81 362 82 417 37 417 c 0
 20 417 -5 400 -21 386 c 1
 -39 411 l 1
 4 448 66 489 125 489 c 0
 142 489 158 482 170 471 c 0
 181 461 188 446 188 384 c 0
 188 325 183 270 183 208 c 0
 183 101 201 61 274 61 c 0
 315 61 370 92 386 103 c 1
 391 161 393 224 393 287 c 0
 393 345 391 403 384 456 c 1
 484 491 l 1
 502 487 l 1xf4
EndSplineSet
EndChar
StartChar: braceleft
Encoding: 123 123 131
Width: 362
Flags: W
HStem: -178 17<308 330> 259 26<-4 13> 710 20<260 330>
VStem: 122 58
LayerCount: 2
Fore
SplineSet
330 -161 m 1
 330 -178 l 1
 286 -178 226 -178 199 -172 c 0
 113 -152 123 -67 123 34 c 0
 123 103 123 208 95 236 c 0
 75 256 30 259 -4 259 c 1
 -4 285 l 1
 26 284 70 287 93 305 c 0
 136 340 115 542 123 620 c 1
 138 728 190 730 330 730 c 1
 330 712 l 1
 297 712 264 711 233 702 c 0
 177 685 180 589 180 518 c 0
 180 365 154 304 78 274 c 1
 78 273 l 1
 217 222 166 37 189 -89 c 1
 204 -162 270 -161 330 -161 c 1
EndSplineSet
EndChar
StartChar: exclamdown
Encoding: 161 161 148
Width: 349
Flags: W
HStem: 380 124<127.2 220.8>
VStem: 112 124<395.2 488.8> 120 104<-193.246 58.5312>
LayerCount: 2
Fore
SplineSet
112 442 m 0xc0
 112 408 140 380 174 380 c 0
 208 380 236 408 236 442 c 0
 236 476 208 504 174 504 c 0
 140 504 112 476 112 442 c 0xc0
217 -69 m 2
 175 302 l 1
 156 304 l 1
 124 -79 l 2
 122 -98 120 -120 120 -137 c 0
 120 -192 146 -202 180 -202 c 0
 212 -202 224 -178 224 -156 c 0xa0
 224 -127 220 -98 217 -69 c 2
EndSplineSet
EndChar
StartChar: yen
Encoding: 165 165 145
Width: 594
UnlinkRmOvrlpSave: 1
Flags: W
HStem: -4 21G<226 315.25> 243 45<63 526> 375 45<61 210 384 528> 669 35<-14 4.83333>
VStem: 226 132<28 240.195> 232 117<42.1646 323>
DStem2: 169 704 91 576 0.453673 -0.891168<0 271.692 320.415 347.888> 343 401 357 375 0.541199 0.840895<-10.5722 38.1661>
LayerCount: 2
Fore
SplineSet
229 375 m 1xf0
 54 375 l 1
 61 420 l 1
 210 420 l 1
 229 375 l 1xf0
384 420 m 1
 534 420 l 1
 528 375 l 1
 357 375 l 1
 384 420 l 1
526 243 m 1
 56 243 l 1
 63 288 l 1
 532 288 l 1
 526 243 l 1
632 695 m 1
 349 323 l 1xf4
 349 224 353 129 358 28 c 1
 244 -4 l 1
 226 5 l 1xf8
 228 107 232 296 232 297 c 0xf4
 231 298 137 488 91 576 c 0
 75 607 56 648 24 657 c 2
 -22 669 l 1
 -22 695 l 1
 -14 704 l 1
 169 704 l 1
 176 687 269 503 319 402 c 0
 321 398 327 396 331 396 c 0
 336 396 339 397 343 401 c 1
 529 690 l 1
 631 707 l 1
 632 695 l 1
EndSplineSet
EndChar
StartChar: brokenbar
Encoding: 166 166 147
Width: 241
Flags: W
VStem: 95 50<-159 232 328 719>
LayerCount: 2
Fore
SplineSet
145 328 m 1
 95 315 l 1
 95 719 l 1
 145 738 l 1
 145 328 l 1
145 -159 m 1
 95 -172 l 1
 95 232 l 1
 145 251 l 1
 145 -159 l 1
EndSplineSet
EndChar
StartChar: ordfeminine
Encoding: 170 170 155
Width: 514
VWidth: 920
Flags: W
HStem: 262 55<152.5 281.267 360.5 440.687> 569 25<223.283 307.458>
VStem: 90 80<338.745 508.121> 333 73<347.386 551.72>
LayerCount: 2
Fore
SplineSet
408 590 m 1
 417 585 l 1
 411 526 406 466 406 407 c 0
 406 349 407 317 430 317 c 0
 446 317 465 333 479 345 c 1
 493 331 l 1
 465 300 425 262 376 262 c 0
 345 262 336 285 332 305 c 1
 323 308 l 1
 285 283 239 260 191 260 c 0
 114 260 90 339 90 394 c 0
 90 529 152 594 262 594 c 0
 300 594 334 584 365 566 c 1
 408 590 l 1
333 485 m 0
 333 519 325 569 268 569 c 0
 187 569 170 478 170 420 c 0
 170 375 186 311 244 311 c 0
 276 311 305 328 328 346 c 1
 332 375 333 441 333 485 c 0
EndSplineSet
EndChar
StartChar: guillemotleft
Encoding: 171 171 154
Width: 502
Flags: W
HStem: -15 21G<257.695 284.75 409.695 436.75> 421 20G<232.727 261.481 383.818 412.481>
DStem2: 60 221 134 218 0.65362 0.756823<46.0974 270.083> 212 221 286 218 0.651643 0.758526<45.946 269.277>
LayerCount: 2
Fore
SplineSet
212 221 m 1
 401 441 l 1
 432 387 l 1
 286 218 l 1
 442 17 l 1
 428 -15 l 1
 212 221 l 1
60 221 m 1
 250 441 l 1
 281 387 l 1
 134 218 l 1
 290 17 l 1
 276 -15 l 1
 60 221 l 1
EndSplineSet
EndChar
StartChar: logicalnot
Encoding: 172 172 135
Width: 773
Flags: W
HStem: 351 50<30 659 30 709>
VStem: 659 50<205 351 351 351>
LayerCount: 2
Fore
SplineSet
709 401 m 1
 709 205 l 1
 659 205 l 1
 659 351 l 1
 30 351 l 1
 30 401 l 1
 709 401 l 1
EndSplineSet
EndChar
StartChar: plusminus
Encoding: 177 177 152
Width: 893
UnlinkRmOvrlpSave: 1
Flags: W
HStem: -84 50<73 422 472 818> 238 50<73 422 472 821>
VStem: 422 50<-64 238 288 584>
LayerCount: 2
Fore
SplineSet
472 288 m 1
 837 288 l 1
 821 238 l 1
 472 238 l 1
 472 -64 l 1
 422 -83 l 1
 422 238 l 1
 56 238 l 1
 73 288 l 1
 422 288 l 1
 422 584 l 1
 472 598 l 1
 472 288 l 1
818 -84 m 1
 54 -84 l 1
 73 -34 l 1
 834 -34 l 1
 818 -84 l 1
EndSplineSet
EndChar
StartChar: uni00B3
Encoding: 179 179 158
Width: 432
VWidth: 920
Flags: W
HStem: 265 26<136.203 230.955> 503 19<115 172.169> 689 42<144.051 240.763>
VStem: 260 83<588.205 669.738> 282 90<343.806 460.92>
LayerCount: 2
Fore
SplineSet
220 524 m 1xf0
 220 520 l 1
 318 512 372 478 372 415 c 0
 372 318 270 265 170 265 c 0
 122 265 74 277 38 304 c 1
 79 374 l 1
 92 373 l 1
 103 337 129 291 175 291 c 0
 252 291 282 345 282 401 c 0xe8
 282 487 198 503 115 503 c 1
 115 522 l 1
 175 525 260 550 260 622 c 0
 260 662 228 689 183 689 c 0
 148 689 115 670 84 652 c 1
 72 668 l 1
 117 699 172 731 230 731 c 0
 287 731 343 701 343 648 c 0
 343 587 286 545 220 524 c 1xf0
EndSplineSet
EndChar
StartChar: paragraph
Encoding: 182 182 239
Width: 521
Flags: W
HStem: 669 30<445.201 497>
VStem: 334 89<20 252.805> 339 76<217.297 302.018>
LayerCount: 2
Fore
SplineSet
334 20 m 1xc0
 411 -6 l 1
 423 4 l 1xc0
 416 156 415 307 415 459 c 0
 415 514 415 592 419 623 c 1
 427 659 472 665 505 669 c 1
 505 691 l 1
 497 699 l 1
 281 699 l 2
 121 699 45 607 40 512 c 0
 35 416 100 317 221 307 c 0
 249 305 339 315 339 282 c 0xa0
 339 281 336 104 334 20 c 1xc0
EndSplineSet
EndChar
StartChar: uni00B9
Encoding: 185 185 159
Width: 432
VWidth: 920
Flags: W
HStem: 656 21<70 93.2931>
VStem: 188 75<292.987 652.059>
LayerCount: 2
Fore
SplineSet
70 677 m 1
 263 735 l 1
 274 723 l 1
 266 634 263 545 263 455 c 0
 263 400 263 333 265 291 c 1
 189 264 l 1
 175 273 l 1
 184 350 188 428 188 505 c 0
 188 549 188 591 185 635 c 0
 184 647 173 656 161 656 c 2
 70 656 l 1
 70 677 l 1
EndSplineSet
EndChar
StartChar: guillemotright
Encoding: 187 187 153
Width: 502
Flags: W
DStem2: 101 441 70 387 0.651643 -0.758526<20.7595 244.09> 252 441 221 387 0.65362 -0.756823<20.6062 244.591>
LayerCount: 2
Fore
SplineSet
290 221 m 1
 101 441 l 1
 70 387 l 1
 216 218 l 1
 60 17 l 1
 74 -15 l 1
 290 221 l 1
442 221 m 1
 252 441 l 1
 221 387 l 1
 368 218 l 1
 212 17 l 1
 226 -15 l 1
 442 221 l 1
EndSplineSet
EndChar
StartChar: questiondown
Encoding: 191 191 149
Width: 428
Flags: W
HStem: -220 40<123.5 271.399> -30 20G<318.333 367.5> 358 145<207.5 309.625>
VStem: 5 111<-132.11 -19.4129> 186 145<379 481.5> 248 97<185.065 269.312> 307 82<-135.255 -44.9082>
DStem2: 81 41 185 81 0.792624 0.609711<31.0989 219.532>
LayerCount: 2
Fore
SplineSet
259 358 m 0xf8
 219 358 186 390 186 430 c 0
 186 470 219 503 259 503 c 0
 298 503 331 470 331 430 c 0
 331 390 298 358 259 358 c 0xf8
275 -55 m 1
 353 -10 l 1
 382 -24 389 -47 389 -73 c 0xf2
 389 -165 263 -220 165 -220 c 0
 82 -220 5 -175 5 -98 c 0
 5 -43 33 4 81 41 c 2
 211 141 l 2
 231 157 248 180 248 204 c 0
 248 224 238 240 220 255 c 1
 220 264 l 1
 290 311 l 1
 324 296 345 272 345 239 c 0xf4
 345 212 329 186 305 168 c 2
 185 81 l 2
 131 42 116 -11 116 -70 c 0
 116 -118 161 -180 219 -180 c 0
 263 -180 307 -159 307 -112 c 0xf2
 307 -97 299 -79 287 -67 c 2
 275 -55 l 1
EndSplineSet
EndChar
StartChar: Thorn
Encoding: 222 222 245
Width: 566
Flags: W
HStem: -6 21G<81 163.556> 182 34<216.509 323.728> 539 35<214.182 357.794> 669 30<7 58.7985>
VStem: 81 134<30 179.266 216.367 302.523> 89 126<167.58 179.266 216.367 538.33 574 648.815> 425 142<311.068 475.603>
LayerCount: 2
Back
SplineSet
220 30 m 1xf4
 93 -6 l 1
 81 4 l 1xf4
 88 156 89 307 89 459 c 0
 89 514 89 592 85 623 c 1
 77 659 32 665 -1 669 c 1
 -1 691 l 1
 7 699 l 1
 352 699 l 2
 512 699 567 633 567 540 c 0
 567 479 549 419 501 375 c 0
 453 330 372 313 300 307 c 0
 272 305 215 315 215 282 c 0xec
 215 281 218 114 220 30 c 1xf4
215 361 m 0xec
 215 349 228 341 242 341 c 0
 358 341 425 424 425 522 c 0
 425 599 376 664 285 664 c 0
 260 664 213 671 213 641 c 0
 213 640 214 454 215 361 c 0xec
EndSplineSet
Fore
SplineSet
216 688 m 1xf6
 214 574 l 1
 352 574 l 2
 512 574 567 508 567 415 c 0
 567 354 549 294 501 250 c 0
 453 205 372 188 300 182 c 0
 272 180 215 190 215 157 c 0
 215 156 218 114 220 30 c 1
 93 -6 l 1
 81 4 l 1xfa
 88 156 89 307 89 459 c 0
 89 514 89 592 85 623 c 1
 77 659 32 665 -1 669 c 1
 -1 691 l 1
 7 699 l 1
 74 699 140 699 207 699 c 1
 216 688 l 1xf6
215 236 m 0
 215 224 228 216 242 216 c 0
 358 216 425 299 425 397 c 0
 425 474 376 539 285 539 c 0
 260 539 213 546 213 516 c 0
 213 515 214 329 215 236 c 0
EndSplineSet
EndChar
StartChar: germandbls
Encoding: 223 223 234
Width: 581
Flags: W
HStem: -160 25<235 269.403> -10 21G<111 205.857> 400 45<45 109 230 375> 644 42<251.173 318.401>
VStem: 111 126<16.2018 308.009> 118 103<128.107 391 454 568.164>
LayerCount: 2
Back
SplineSet
309 416 m 25
 435 416 l 25
 343 254 l 17
 386 220 469 150.284179688 469 63 c 0
 469 -40 390 -125 276 -148 c 9
EndSplineSet
Fore
SplineSet
221 392 m 1xf4
 221 266 230 128 237 18 c 1
 128 -10 l 1
 111 -1 l 1xf8
 115 102 118 261 118 391 c 1
 109 400 l 1
 29 400 l 1
 24 408 l 1
 34 437 l 1
 45 444 l 1
 110 444 l 1
 118 454 l 1
 128 668 251 686 308 686 c 0
 327 686 391 679 425 609 c 1
 355 558 l 1
 339 565 l 1
 339 613 305 644 284 644 c 0
 264 644 236 617 227 571 c 0
 221 543 221 517 221 454 c 1
 230 445 l 1
 487 445 l 1
 493 435 l 1
 484 409 l 1
 399 259 l 1
 443 223 525 157 525 76 c 0
 525 -82 424 -160 235 -160 c 1
 232 -135 l 1
 321 -117 391 -62 414 12 c 0
 426 49 425 82 410 116 c 0
 385 173 330 217 299 242 c 1
 299 266 l 1
 375 400 l 1
 230 400 l 1
 221 392 l 1xf4
EndSplineSet
EndChar
StartChar: ae
Encoding: 230 230 241
Width: 838
Flags: W
HStem: -16 68<558.453 683.702> -15 78<146 295.818> 460 38<248.29 364.533 568.734 670.458>
VStem: 58 113<120.036 343.907> 368 120<126.902 323.302> 716 123<318.654 418.422>
LayerCount: 2
Fore
SplineSet
803 101 m 1xbc
 814 82 l 1
 748 35 667 -16 585 -16 c 0xbc
 528 -16 469 -2 429 35 c 0
 418 45 409 57 401 69 c 1
 345 28 276 -15 200 -15 c 0x7c
 92 -15 58 108 58 191 c 0
 58 393 141 498 300 498 c 0
 369 498 424 470 472 438 c 1
 516 473 575 495 648 495 c 0
 742 495 839 459 839 349 c 0
 839 328 829 318 810 312 c 0
 809 312 595 246 488 213 c 1
 488 133 539 52 636 52 c 0
 691 52 742 77 788 105 c 1
 803 101 l 1xbc
501 258 m 0
 686 317 716 315 716 344 c 0
 716 395 690 455 625 455 c 0
 517 455 488 335 488 262 c 0
 488 258 491 257 495 257 c 0
 497 257 499 258 501 258 c 0
401 349 m 1
 398 399 381 460 309 460 c 0
 194 460 171 321 171 230 c 0
 171 161 192 63 276 63 c 0x7c
 316 63 354 84 382 108 c 1
 371 139 368 172 368 204 c 0
 368 255 379 305 401 349 c 1
EndSplineSet
EndChar
StartChar: divide
Encoding: 247 247 228
Width: 893
Flags: W
HStem: -61 132<398.303 495.697> 231 50<73 818 54 834> 446 132<398.303 495.697>
VStem: 381 132<-43.6965 53.6965 463.303 560.697>
LayerCount: 2
Fore
SplineSet
381 5 m 0
 381 41 411 71 447 71 c 0
 483 71 513 41 513 5 c 0
 513 -31 483 -61 447 -61 c 0
 411 -61 381 -31 381 5 c 0
381 512 m 0
 381 548 411 578 447 578 c 0
 483 578 513 548 513 512 c 0
 513 476 483 446 447 446 c 0
 411 446 381 476 381 512 c 0
EndSplineSet
Refer: 123 8722 N 1 0 0 1 0 0 2
EndChar
StartChar: oslash
Encoding: 248 248 236
Width: 596
UnlinkRmOvrlpSave: 1
Flags: W
HStem: -11 41<226.055 354.377> 446 40<232.396 358.641>
VStem: 34 129<111.385 334.329> 416 129<143.02 369.834>
DStem2: 98 -78 146 -104 0.398519 0.91716<0 698.688>
LayerCount: 2
Fore
SplineSet
424 556 m 1
 428 545 l 1
 146 -104 l 1
 100 -92 l 1
 98 -78 l 1
 376 563 l 1
 388 565 l 1
 424 556 l 1
EndSplineSet
Refer: 95 111 N 1 0 0 1 0 0 2
EndChar
StartChar: thorn
Encoding: 254 254 246
Width: 613
Flags: W
HStem: -88 42<228.433 362.708> 326 74<290.651 446> 436 21G<-24.6667 -4> 464 75<41 149.5>
VStem: 68 133<-217 -73> 89 108<29.3185 292.037 337 455.446> 428 120<78.9069 263.404>
LayerCount: 2
Back
SplineSet
201 -217 m 1xe8
 80 -247 l 1
 68 -238 l 1xe8
 74 -75 89 12 89 297 c 0xd8
 89 359 91 413 50 413 c 0
 32 413 5 396 -13 385 c 1
 -27 409 l 1
 19 445 76 488 132 488 c 0
 176 488 195 460 197 425 c 1
 205 421 l 1
 256 454 322 488 379 488 c 0
 513 488 548 380 548 284 c 0
 548 143 457 0 289 0 c 0
 259 0 229 4 203 21 c 1
 201 15 l 1
 201 -217 l 1xe8
221 69 m 0
 240 52 266 42 293 42 c 0
 402 42 428 148 428 230 c 0
 428 307 412 414 311 414 c 0
 270 414 228 389 194 366 c 1
 194 163 l 2xd8
 194 129 197 91 221 69 c 0
EndSplineSet
Fore
SplineSet
201 -217 m 1xfa
 80 -247 l 1
 68 -238 l 1xfa
 74 -75 89 12 89 297 c 0xf6
 89 359 91 464 50 464 c 0
 32 464 5 447 -13 436 c 1
 -27 460 l 1
 19 496 76 539 132 539 c 0
 167 539 195 527 199 457 c 0
 200 439 200 364 200 337 c 1
 208 333 l 1
 259 366 322 400 379 400 c 0
 513 400 548 292 548 196 c 0
 548 55 457 -88 289 -88 c 0
 259 -88 229 -84 203 -67 c 1
 201 -73 l 1
 201 -217 l 1xfa
221 -19 m 0
 240 -36 266 -46 293 -46 c 0
 402 -46 428 60 428 142 c 0
 428 219 412 326 311 326 c 0
 270 326 231 301 197 278 c 1xf6
 194 75 l 2
 193 41 197 3 221 -19 c 0
EndSplineSet
EndChar
StartChar: dotlessj
Encoding: 567 567 108
Width: 295
Flags: W
HStem: 420 73<56 182.5>
VStem: 105 106<-29.1825 395>
LayerCount: 2
Fore
SplineSet
-2 389 m 1
 -18 411 l 1
 27 445 88 493 141 493 c 0
 224 493 211 417 211 256 c 0
 211 191 211 81 206 27 c 0
 194 -85 72 -180 -31 -246 c 1
 -58 -227 l 1
 23 -166 95 -101 102 0 c 0
 104 32 105 78 105 125 c 0
 105 275 121 420 67 420 c 0
 45 420 18 405 -2 389 c 1
EndSplineSet
Colour: ff0000
EndChar
StartChar: uni0302
Encoding: 770 770 165
Width: 0
Flags: W
HStem: 516 192
DStem2: 7 708 4 646 0.756916 -0.653512<38.247 224.701>
LayerCount: 2
Fore
SplineSet
7 708 m 1
 190 550 l 1
 145 524 l 1
 4 646 l 1
 -163 516 l 1
 -190 528 l 1
 7 708 l 1
EndSplineSet
EndChar
StartChar: tildecomb
Encoding: 771 771 166
Width: 0
Flags: W
VStem: -148 17<530.118 545.21> 131 15<602.789 615.8>
DStem2: 45 589 26 535 0.902861 -0.429934<-122.988 57.2441>
LayerCount: 2
Fore
SplineSet
-2 610 m 2
 45 589 l 2
 59 583 75 578 91 580 c 0
 115 583 122 596 131 619 c 1
 146 613 l 1
 143 584 122 528 90 523 c 0
 68 520 46 526 26 535 c 2
 -37 565 l 2
 -52 572 -70 576 -87 574 c 0
 -111 571 -119 559 -131 526 c 1
 -148 533 l 1
 -140 568 -120 626 -85 631 c 0
 -59 635 -28 621 -2 610 c 2
EndSplineSet
EndChar
StartChar: uni0304
Encoding: 772 772 167
Width: 0
Flags: W
HStem: 551 50<-122 125>
VStem: -141 282
LayerCount: 2
Fore
SplineSet
125 551 m 1
 -141 551 l 1
 -122 601 l 1
 141 601 l 1
 125 551 l 1
EndSplineSet
EndChar
StartChar: uni0308
Encoding: 776 776 168
Width: 0
Flags: W
HStem: 518 132<-148.697 -51.3035 51.3035 148.697>
VStem: -166 132<535.303 632.697> 34 132<535.303 632.697>
LayerCount: 2
Fore
SplineSet
34 584 m 0
 34 620 64 650 100 650 c 0
 136 650 166 620 166 584 c 0
 166 548 136 518 100 518 c 0
 64 518 34 548 34 584 c 0
-166 584 m 0
 -166 620 -136 650 -100 650 c 0
 -64 650 -34 620 -34 584 c 0
 -34 548 -64 518 -100 518 c 0
 -136 518 -166 548 -166 584 c 0
EndSplineSet
EndChar
StartChar: uni0327
Encoding: 807 807 170
Width: 0
Flags: W
HStem: -259 265
LayerCount: 2
Fore
SplineSet
-29 6 m 25
 25 6 l 17
 5 -41 l 1
 18 -46 59 -69 78 -92 c 0
 101 -120 110 -156 84 -192 c 0
 51 -236 -29 -249 -84 -259 c 1
 -90 -244 l 1
 -85 -234 l 1
 -59 -224 -43 -217 -29 -199 c 0
 -1 -161 -49 -133 -86 -122 c 9
 -29 6 l 25
EndSplineSet
EndChar
StartChar: epsilon
Encoding: 949 949 34
Width: 532
Flags: MW
HStem: -16 79 234 51 436 36<267 301.5>
VStem: 128 76<338.5 384>
LayerCount: 2
Fore
SplineSet
360 286 m 1
 328 222 l 1
 315 226 277 233 263 233 c 0
 220 233 202 196 202 168 c 0
 202 97 266 61 337 61 c 0
 389 61 438 85 478 114 c 1
 486 113 l 1
 498 96 l 1
 431 37 344 -16 252 -16 c 0
 173 -16 105 35 105 118 c 0
 105 162 131 217 197 239 c 1
 196 245 l 1
 156 258 128 301 128 343 c 0
 128 425 228 472 306 472 c 0
 354 472 403 459 437 427 c 1
 394 352 l 1
 383 352 l 1
 359 402 327 436 276 436 c 0
 241 436 204 411 204 378 c 0
 204 299 294 286 360 286 c 1
EndSplineSet
Colour: ff0000
EndChar
StartChar: theta
Encoding: 952 952 18
Width: 649
Flags: MW
HStem: -14 67<276 338> 317 44<190 314 314 451 190 190> 622 55<309.5 371.5>
VStem: 84 93<243 414> 461 102<245 457>
LayerCount: 2
Fore
SplineSet
371 677 m 0
 530 677 563 516 563 398 c 0
 563 330 557 261 535 196 c 0
 498 83 402 -14 274 -14 c 0
 111 -14 84 176 84 310 c 0
 84 369 87 440 107 496 c 0
 148 610 248 677 371 677 c 0
314 361 m 1
 451 361 l 1
 459 370 l 1
 455 440 438 622 305 622 c 0
 180 622 177 457 177 371 c 1
 188 361 l 1
 314 361 l 1
180 306 m 1
 188 233 217 53 335 53 c 0
 457 53 461 182 461 308 c 1
 452 317 l 1
 190 317 l 1
 180 306 l 1
EndSplineSet
Colour: ff0000
EndChar
StartChar: iota
Encoding: 953 953 19
Width: 354
Flags: MW
HStem: -11 79<158.5 276.5> 449 20<217 217>
VStem: 123 101
LayerCount: 2
Fore
SplineSet
336 104 m 1
 348 92 l 1
 314 43 264 -11 194 -11 c 0
 123 -11 119 79 119 139 c 0
 119 239 119 338 114 438 c 1
 217 469 l 1
 230 461 l 1
 225 362 223 264 223 165 c 0
 223 119 226 68 263 68 c 0
 290 68 310 86 328 104 c 1
 336 104 l 1
EndSplineSet
Colour: ff0000
EndChar
StartChar: kappa
Encoding: 954 954 20
Width: 583
Flags: MW
HStem: -9 18 451 19
VStem: 114 105
LayerCount: 2
Fore
SplineSet
487 467 m 1
 562 437 l 1
 562 427 l 1
 482 393 367 330 304 278 c 1
 381 193 468 113 554 49 c 1
 555 40 l 1
 448 -12 l 1
 406 27 362 64 323 106 c 2
 228 208 l 1
 219 201 l 1
 219 141 220 85 222 25 c 1
 125 -7 l 1
 114 -1 l 1
 114 75 116 150 116 226 c 0
 116 233 113 367 111 437 c 1
 216 471 l 1
 219 459 l 1
 219 259 l 1
 226 255 l 1
 333 357 397 411 487 467 c 1
EndSplineSet
Colour: ff0000
EndChar
StartChar: rho
Encoding: 961 961 26
Width: 611
Flags: MW
HStem: -196 21<136 136> 2 51 437 37
VStem: 104 109 439 127
LayerCount: 2
Fore
SplineSet
228 -166 m 1
 136 -196 l 1
 122 -193 111 -188 111 -181 c 0
 107 -68 104 55 104 162 c 0
 104 417 220 474 354 474 c 0
 412 474 471 459 513 421 c 0
 557 381 566 325 566 270 c 0
 566 91 472 -2 354 -2 c 0
 305 -2 253 14 215 55 c 1
 206 53 l 1
 206 -15 220 -88 236 -154 c 1
 228 -166 l 1
221 133 m 1
 235 85 269 53 322 53 c 0
 431 53 444 177 444 266 c 0
 444 334 427 439 346 439 c 0
 238 439 210 318 210 222 c 0
 210 198 212 160 221 133 c 1
EndSplineSet
Colour: ff0000
EndChar
StartChar: omega
Encoding: 969 969 33
Width: 973
Flags: MW
HStem: -7 77 478 20
VStem: 78 99<233 257.5> 432 102<223.5 311 223.5 369 223.5 375> 801 86<240.5 266>
LayerCount: 2
Fore
SplineSet
716 432 m 1
 784 495 l 1
 804 499 l 1
 867 467 887 378 887 315 c 0
 887 166 781 -7 605 -7 c 0
 540 -7 489 2 453 74 c 1
 438 74 l 1
 387 29 331 -9 253 -9 c 0
 126 -9 78 105 78 198 c 0
 78 317 126 457 274 496 c 1
 291 476 l 1
 209 435 177 354 177 275 c 0
 177 191 221 73 333 73 c 0
 397 73 432 128 432 207 c 2
 432 369 l 2
 432 381 429 431 427 464 c 1
 534 496 l 1
 544 486 l 1
 538 416 534 346 534 276 c 0
 534 171 559 67 662 67 c 0
 761 67 801 156 801 232 c 0
 801 300 775 366 719 413 c 1
 716 432 l 1
EndSplineSet
Colour: ff0000
EndChar
StartChar: phi1
Encoding: 981 981 37
Width: 817
Flags: MW
HStem: 421 47<522.5 549.5>
VStem: 85 116<228 293> 323 105<-34.5 -10 -36 -9 42 256> 618 119<236.5 289>
LayerCount: 2
Fore
SplineSet
333 -201 m 1
 318 -197 l 1
 321 -154 323 -60 323 -9 c 1
 317 -1 l 1
 151 6 85 116 85 227 c 0
 85 359 188 446 322 472 c 1
 332 448 l 1
 234 418 201 345 201 266 c 0
 201 190 222 52 317 36 c 1
 323 42 l 1
 323 270 l 2
 323 331 346 365 386 403 c 0
 419 434 485 468 560 468 c 0
 690 468 737 366 737 273 c 0
 737 200 712 128 655 76 c 0
 596 22 516 -1 434 -3 c 1
 428 -10 l 1
 428 -62 431 -138 433 -171 c 1
 333 -201 l 1
434 30 m 1
 459 30 474 31 494 41 c 0
 592 88 618 168 618 255 c 0
 618 323 581 421 518 421 c 0
 426 421 428 323 428 256 c 2
 428 38 l 1
 434 30 l 1
EndSplineSet
Colour: ff0000
EndChar
StartChar: quoteleft
Encoding: 8216 8216 128
Width: 254
Flags: W
HStem: 410 299<118.5 166>
VStem: 53 135<444.5 566>
LayerCount: 2
Fore
SplineSet
166 709 m 1
 181 695 l 1
 157 659 124 611 124 577 c 0
 124 561 130 545 140 532 c 2
 178 483 l 2
 184 475 188 465 188 455 c 0
 188 434 159 410 138 410 c 0
 99 410 53 496 53 541 c 0
 53 591 119 660 166 709 c 1
EndSplineSet
EndChar
StartChar: lscript
Encoding: 8467 8467 80
Width: 411
Flags: MW
HStem: -20 87<246 253> 669 40
VStem: 85 101 311 64<543 610.5>
LayerCount: 2
Fore
SplineSet
373 134 m 1
 391 121 l 1
 353 55 294 -20 212 -20 c 0
 115 -20 98 89 91 168 c 1
 83 172 l 1
 31 133 l 1
 15 153 l 1
 16 154 60 190 86 211 c 1
 84 228 84 258 84 282 c 0
 84 429 102 709 299 709 c 0
 358 709 375 642 375 587 c 0
 375 456 291 336 190 245 c 1
 195 187 208 67 284 67 c 0
 316 67 357 112 373 134 c 1
195 296 m 1
 269 368 311 495 311 591 c 0
 311 630 306 671 272 671 c 0
 261 671 252 666 244 659 c 0
 182 603 184 456 184 362 c 0
 184 340 185 320 186 299 c 1
 195 296 l 1
EndSplineSet
Colour: ff0000
EndChar
StartChar: weierstrass
Encoding: 8472 8472 109
Width: 675
Flags: MW
HStem: -202 50<168.5 227> -9 66 411 76
VStem: 49 58<-42.5 -28.5> 543 90<267 289.5>
LayerCount: 2
Fore
SplineSet
329 59 m 1
 370 105 l 1
 380 105 l 1
 388 80 407 56 439 56 c 0
 529 56 543 182 543 257 c 0
 543 322 514 412 431 412 c 0
 347 412 275 330 226 257 c 1
 263 193 311 130 329 59 c 1
224 489 m 1
 240 475 l 1
 212 445 181 406 181 364 c 0
 181 342 195 314 203 299 c 1
 214 299 l 1
 274 377 373 486 494 486 c 0
 601 486 633 395 633 318 c 0
 633 216 586 121 508 49 c 0
 476 20 434 -9 389 -9 c 0
 370 -9 351 -5 335 3 c 1
 331 -83 284 -202 170 -202 c 0
 95 -202 49 -138 49 -76 c 0
 49 19 95 112 144 194 c 1
 125 222 100 263 100 301 c 0
 100 371 164 441 224 489 c 1
162 153 m 1
 134 104 107 43 107 -15 c 0
 107 -70 134 -152 203 -152 c 0
 263 -152 281 -84 281 -39 c 0
 281 13 225 81 186 134 c 2
 172 153 l 1
 162 153 l 1
EndSplineSet
Colour: ff0000
EndChar
StartChar: Omega
Encoding: 8486 8486 10
Width: 960
Flags: MW
HStem: 0 104 659 41<440.5 572>
VStem: 97 144<324.5 427> 716 141<332.5 441>
LayerCount: 2
Fore
SplineSet
928 105 m 1
 892 -5 l 1
 831 -1 733 5 709 5 c 0
 641 5 572 4 504 -1 c 1
 530 94 l 1
 679 131 716 251 716 379 c 0
 716 503 661 659 483 659 c 0
 290 659 241 503 241 373 c 0
 241 257 301 133 423 95 c 1
 390 3 l 1
 330 7 270 8 209 8 c 0
 150 8 91 6 32 3 c 1
 26 14 l 1
 54 109 l 1
 136 103 212 97 294 96 c 1
 297 108 l 1
 174 154 97 264 97 385 c 0
 97 469 130 554 196 614 c 0
 269 680 388 700 493 700 c 0
 777 700 857 554 857 395 c 0
 857 270 789 149 643 106 c 1
 647 95 l 1
 734 100 842 105 928 105 c 1
EndSplineSet
Colour: ff0000
EndChar
StartChar: f.alt
Encoding: 65539 -1 111
Width: 308
Flags: W
HStem: -10 21G<111 205.857> 400 44<14 109 230 341> 644 40<251.963 360>
VStem: 118 103<128.107 391 454 568.164>
LayerCount: 2
Back
SplineSet
308 902.400390625 m 25
 308 276.400390625 l 25
509 685 m 1xa8
 501 231 l 2
 501 218 500 203 500 188 c 0
 500 117 504 78 538 78 c 0
 566 78 592 101 612 123 c 1
 624 123 l 1
 640 107 l 1
 602 56 542 -7 477 -7 c 0
 392 -7 392 62 392 124 c 0xb0
 392 200 396 276 396 358 c 0
 396 414 396 472 395 527 c 0
 394 556 394 597 390 614 c 0
 382 649 342 647 300 649 c 1
 300 672 l 1
 312 680 l 1xc8
 496 697 l 1
 509 685 l 1xa8
221 392 m 1
 221 266 230 128 237 18 c 1
 128 -10 l 1
 111 -1 l 1
 115 102 118 261 118 391 c 1
 109 400 l 1
 -2 400 l 1
 -7 408 l 1
 3 437 l 1
 14 444 l 1
 110 444 l 1
 118 454 l 1
 128 668 251 686 308 686 c 0
 327 686 391 679 425 609 c 1
 355 558 l 1
 339 565 l 1
 339 613 305 644 284 644 c 0
 264 644 236 617 227 571 c 0
 221 543 221 517 221 454 c 1
 230 445 l 1
 356 445 l 1
 362 435 l 1
 353 409 l 1
 341 400 l 1
 230 400 l 1
 221 392 l 1
EndSplineSet
Fore
SplineSet
360 644 m 1
 284 644 l 0
 264 644 236 617 227 571 c 0
 221 543 221 517 221 454 c 1
 230 445 l 1
 356 445 l 1
 362 435 l 1
 353 409 l 1
 341 400 l 1
 230 400 l 1
 221 392 l 1
 221 266 230 128 237 18 c 1
 128 -10 l 1
 111 -1 l 1
 115 102 118 261 118 391 c 1
 109 400 l 1
 -2 400 l 1
 -7 408 l 1
 3 437 l 1
 14 444 l 1
 110 444 l 1
 118 454 l 1
 128 668 251 686 308 686 c 0
 360 684 l 1
 360 644 l 1
EndSplineSet
EndChar
